<svg width="93" height="58" viewBox="0 0 93 58" fill="none" xmlns="http://www.w3.org/2000/svg">
<g clip-path="url(#clip0_584_2613)">
<path d="M9.47397 16.4619C9.90347 16.6437 10.3394 16.6026 10.4769 16.3118L13.5815 9.2939C13.6943 9.03315 13.4374 8.64053 13.0079 8.4587L7.17798 5.81246C6.74849 5.63063 6.31253 5.67173 6.17501 5.9626L3.07047 12.9804C2.95761 13.2412 3.21454 13.6338 3.64403 13.8157L9.47397 16.4619Z" fill="#8BC53F"/>
<path d="M79.8254 48.2347L83.353 40.2301L18.6871 11.012L15.1595 19.0167L79.8254 48.2347Z" fill="#37B34A"/>
<path d="M79.8201 48.2352L88.0774 47.1789L83.354 40.232L79.8201 48.2352Z" fill="#E4C494"/>
<path d="M80.571 46.544L82.6074 41.923L17.9415 12.705L15.905 17.326L80.571 46.544Z" fill="#8BC53F"/>
<path d="M84.8445 47.5956L88.0766 47.1798L86.2262 44.4641L84.8445 47.5956Z" fill="#040607"/>
<path d="M15.1375 19.0032L18.665 10.9985L11.2632 7.65416L7.73565 15.6588L15.1375 19.0032Z" fill="#FFD963"/>
<path d="M17.1991 10.3418L13.6651 18.345L17.1991 10.3418Z" stroke="#F59120" stroke-width="5" stroke-miterlimit="10"/>
<path d="M15.8466 9.72118L12.3127 17.7244L15.8466 9.72118Z" stroke="#F59120" stroke-width="5" stroke-miterlimit="10"/>
</g>
<defs>
<clipPath id="clip0_584_2613">
<rect width="20" height="93" fill="white" transform="translate(0.0246582 18.8867) rotate(-65.5858)"/>
</clipPath>
</defs>
</svg>
