<svg width="68" height="47" viewBox="0 0 68 47" fill="none" xmlns="http://www.w3.org/2000/svg">
<g clip-path="url(#clip0_584_2633)">
<path d="M12.7274 37.3938C13.1316 37.1898 13.3717 36.8408 13.238 36.5559L9.87752 29.8401C9.75112 29.5925 9.29529 29.5359 8.89107 29.7399L3.26994 32.3968C2.86573 32.6008 2.62557 32.9498 2.75934 33.2347L6.11979 39.9505C6.24619 40.1981 6.70202 40.2547 7.10624 40.0507L12.7274 37.3938Z" fill="#68B8E6"/>
<path d="M58.3571 15.6399L54.5458 7.97551L14.4458 27.0616L18.257 34.7259L58.3571 15.6399Z" fill="#3786B3"/>
<path d="M58.3542 15.6445L62.6934 8.85924L54.5179 7.99063L58.3542 15.6445Z" fill="#E4C494"/>
<path d="M57.5521 14.0206L55.3519 9.59608L15.2519 28.6821L17.4521 33.1067L57.5521 14.0206Z" fill="#68B8E6"/>
<path d="M60.9971 11.5181L62.6938 8.86065L59.4953 8.52399L60.9971 11.5181Z" fill="#040607"/>
<path d="M18.166 34.7943L14.3246 27.1442L7.19946 30.5271L11.0408 38.1772L18.166 34.7943Z" fill="#FFD963"/>
<path d="M12.9171 27.8164L16.7534 35.4703L12.9171 27.8164Z" stroke="#F59120" stroke-width="5" stroke-miterlimit="10"/>
<path d="M11.6082 28.4287L15.4445 36.0826L11.6082 28.4287Z" stroke="#F59120" stroke-width="5" stroke-miterlimit="10"/>
</g>
<defs>
<clipPath id="clip0_584_2633">
<rect width="20" height="65" fill="white" transform="translate(8.66309 46.1816) rotate(-115.668)"/>
</clipPath>
</defs>
</svg>
