<svg width="147" height="28" viewBox="0 0 147 28" fill="none" xmlns="http://www.w3.org/2000/svg">
<g clip-path="url(#clip0_584_2623)">
<path d="M8.59772 21.3801C9.07182 21.3447 9.45043 21.1041 9.44347 20.776L9.08096 12.9596C9.06523 12.6703 8.65251 12.4339 8.17841 12.4692L1.66192 12.7871C1.18781 12.8224 0.809205 13.0631 0.816166 13.3912L1.17867 21.2076C1.1944 21.4968 1.60712 21.7333 2.08122 21.698L8.59772 21.3801Z" fill="#E78668"/>
<path d="M139.148 14.8945L138.659 6.16115L14.6366 12.297L15.126 21.0304L139.148 14.8945Z" fill="#B34637"/>
<path d="M139.141 15.0583L146.185 10.2487L138.721 6.14824L139.141 15.0583Z" fill="#E4C494"/>
<path d="M139.041 13.0125L138.763 8.06981L14.7455 14.1808L15.0237 19.1234L139.041 13.0125Z" fill="#E78668"/>
<path d="M143.428 12.1402L146.185 10.2554L143.263 8.65426L143.428 12.1402Z" fill="#040607"/>
<path d="M14.9309 21.0478L14.5054 12.147L6.20256 12.566L6.62807 21.4668L14.9309 21.0478Z" fill="#FFD963"/>
<path d="M12.8513 12.2337L13.2708 21.1481L12.8513 12.2337Z" stroke="#F59120" stroke-width="5" stroke-miterlimit="10"/>
<path d="M11.337 12.2993L11.7565 21.2137L11.337 12.2993Z" stroke="#F59120" stroke-width="5" stroke-miterlimit="10"/>
</g>
<defs>
<clipPath id="clip0_584_2623">
<rect width="20" height="146" fill="white" transform="translate(0.990723 27.209) rotate(-92.8397)"/>
</clipPath>
</defs>
</svg>
