<svg width="270" height="57" viewBox="0 0 270 57" fill="none" xmlns="http://www.w3.org/2000/svg">
<g clip-path="url(#clip0_584_2380)">
<path d="M397.25 57V0L0.25 0V57L397.25 57Z" fill="#FECC7B"/>
<path d="M15.1321 17V24H13.5121V18.3H12.1121V17H15.1321Z" fill="black"/>
<path d="M42.6708 22.6809V24.0009H37.3808V22.9509L40.0808 20.4009C40.3675 20.1275 40.5608 19.8942 40.6608 19.7009C40.7608 19.5009 40.8108 19.3042 40.8108 19.1109C40.8108 18.8309 40.7141 18.6175 40.5208 18.4709C40.3341 18.3175 40.0575 18.2409 39.6908 18.2409C39.3841 18.2409 39.1075 18.3009 38.8608 18.4209C38.6141 18.5342 38.4075 18.7075 38.2408 18.9409L37.0608 18.1809C37.3341 17.7742 37.7108 17.4575 38.1908 17.2309C38.6708 16.9975 39.2208 16.8809 39.8408 16.8809C40.3608 16.8809 40.8141 16.9675 41.2008 17.1409C41.5941 17.3075 41.8975 17.5475 42.1108 17.8609C42.3308 18.1675 42.4408 18.5309 42.4408 18.9509C42.4408 19.3309 42.3608 19.6875 42.2008 20.0209C42.0408 20.3542 41.7308 20.7342 41.2708 21.1609L39.6608 22.6809H42.6708Z" fill="black"/>
<path d="M67.701 19.85C68.3143 19.95 68.7843 20.18 69.111 20.54C69.4377 20.8933 69.601 21.3333 69.601 21.86C69.601 22.2667 69.4943 22.6433 69.281 22.99C69.0677 23.33 68.741 23.6033 68.301 23.81C67.8677 24.0167 67.3343 24.12 66.701 24.12C66.2077 24.12 65.721 24.0567 65.241 23.93C64.7677 23.7967 64.3643 23.61 64.031 23.37L64.661 22.13C64.9277 22.33 65.2343 22.4867 65.581 22.6C65.9343 22.7067 66.2943 22.76 66.661 22.76C67.0677 22.76 67.3877 22.6833 67.621 22.53C67.8543 22.37 67.971 22.1467 67.971 21.86C67.971 21.2867 67.5343 21 66.661 21H65.921V19.93L67.361 18.3H64.381V17H69.281V18.05L67.701 19.85Z" fill="black"/>
<path d="M96.8528 22.53H95.7128V24H94.1328V22.53H90.3628V21.44L93.6628 17H95.3628L92.3028 21.21H94.1828V19.9H95.7128V21.21H96.8528V22.53Z" fill="black"/>
<path d="M118.816 19.63C119.803 19.63 120.53 19.8267 120.996 20.22C121.47 20.6133 121.706 21.14 121.706 21.8C121.706 22.2267 121.6 22.6167 121.386 22.97C121.173 23.3167 120.846 23.5967 120.406 23.81C119.973 24.0167 119.436 24.12 118.796 24.12C118.303 24.12 117.816 24.0567 117.336 23.93C116.863 23.7967 116.46 23.61 116.126 23.37L116.766 22.13C117.033 22.33 117.34 22.4867 117.686 22.6C118.033 22.7067 118.39 22.76 118.756 22.76C119.163 22.76 119.483 22.68 119.716 22.52C119.95 22.36 120.066 22.1367 120.066 21.85C120.066 21.55 119.943 21.3233 119.696 21.17C119.456 21.0167 119.036 20.94 118.436 20.94H116.646L117.006 17H121.276V18.3H118.356L118.246 19.63H118.816Z" fill="black"/>
<path d="M147.076 19.6109C147.523 19.6109 147.93 19.7009 148.296 19.8809C148.663 20.0609 148.953 20.3175 149.166 20.6509C149.38 20.9775 149.486 21.3575 149.486 21.7909C149.486 22.2575 149.37 22.6675 149.136 23.0209C148.903 23.3742 148.583 23.6475 148.176 23.8409C147.776 24.0275 147.33 24.1209 146.836 24.1209C145.856 24.1209 145.09 23.8209 144.536 23.2209C143.983 22.6209 143.706 21.7642 143.706 20.6509C143.706 19.8575 143.856 19.1775 144.156 18.6109C144.456 18.0442 144.873 17.6142 145.406 17.3209C145.946 17.0275 146.57 16.8809 147.276 16.8809C147.65 16.8809 148.006 16.9242 148.346 17.0109C148.693 17.0909 148.986 17.2075 149.226 17.3609L148.626 18.5509C148.28 18.3175 147.843 18.2009 147.316 18.2009C146.723 18.2009 146.253 18.3742 145.906 18.7209C145.56 19.0675 145.373 19.5709 145.346 20.2309C145.76 19.8175 146.336 19.6109 147.076 19.6109ZM146.746 22.9109C147.093 22.9109 147.373 22.8175 147.586 22.6309C147.806 22.4442 147.916 22.1909 147.916 21.8709C147.916 21.5509 147.806 21.2975 147.586 21.1109C147.373 20.9175 147.086 20.8209 146.726 20.8209C146.373 20.8209 146.083 20.9209 145.856 21.1209C145.63 21.3142 145.516 21.5642 145.516 21.8709C145.516 22.1775 145.626 22.4275 145.846 22.6209C146.066 22.8142 146.366 22.9109 146.746 22.9109Z" fill="black"/>
<path d="M175.269 17V18.05L172.669 24H170.909L173.419 18.32H171.099V19.46H169.659V17H175.269Z" fill="black"/>
<path d="M200.379 20.3209C200.726 20.4942 200.989 20.7209 201.169 21.0009C201.356 21.2809 201.449 21.6042 201.449 21.9709C201.449 22.4042 201.326 22.7842 201.079 23.1109C200.833 23.4309 200.486 23.6809 200.039 23.8609C199.593 24.0342 199.076 24.1209 198.489 24.1209C197.903 24.1209 197.386 24.0342 196.939 23.8609C196.499 23.6809 196.156 23.4309 195.909 23.1109C195.669 22.7842 195.549 22.4042 195.549 21.9709C195.549 21.6042 195.639 21.2809 195.819 21.0009C196.006 20.7209 196.269 20.4942 196.609 20.3209C196.349 20.1609 196.149 19.9609 196.009 19.7209C195.869 19.4742 195.799 19.1942 195.799 18.8809C195.799 18.4742 195.913 18.1209 196.139 17.8209C196.366 17.5209 196.683 17.2909 197.089 17.1309C197.496 16.9642 197.963 16.8809 198.489 16.8809C199.023 16.8809 199.493 16.9642 199.899 17.1309C200.313 17.2909 200.633 17.5209 200.859 17.8209C201.086 18.1209 201.199 18.4742 201.199 18.8809C201.199 19.1942 201.129 19.4742 200.989 19.7209C200.849 19.9609 200.646 20.1609 200.379 20.3209ZM198.489 18.0709C198.163 18.0709 197.899 18.1509 197.699 18.3109C197.506 18.4642 197.409 18.6775 197.409 18.9509C197.409 19.2175 197.506 19.4275 197.699 19.5809C197.893 19.7342 198.156 19.8109 198.489 19.8109C198.823 19.8109 199.089 19.7342 199.289 19.5809C199.489 19.4275 199.589 19.2175 199.589 18.9509C199.589 18.6775 199.489 18.4642 199.289 18.3109C199.089 18.1509 198.823 18.0709 198.489 18.0709ZM198.489 22.9309C198.896 22.9309 199.216 22.8409 199.449 22.6609C199.689 22.4742 199.809 22.2275 199.809 21.9209C199.809 21.6142 199.689 21.3709 199.449 21.1909C199.216 21.0109 198.896 20.9209 198.489 20.9209C198.089 20.9209 197.773 21.0109 197.539 21.1909C197.306 21.3709 197.189 21.6142 197.189 21.9209C197.189 22.2342 197.306 22.4809 197.539 22.6609C197.773 22.8409 198.089 22.9309 198.489 22.9309Z" fill="black"/>
<path d="M224.166 16.8809C225.146 16.8809 225.913 17.1809 226.466 17.7809C227.02 18.3742 227.296 19.2309 227.296 20.3509C227.296 21.1442 227.146 21.8242 226.846 22.3909C226.553 22.9575 226.136 23.3875 225.596 23.6809C225.056 23.9742 224.433 24.1209 223.726 24.1209C223.353 24.1209 222.996 24.0809 222.656 24.0009C222.316 23.9142 222.026 23.7942 221.786 23.6409L222.386 22.4509C222.726 22.6842 223.163 22.8009 223.696 22.8009C224.29 22.8009 224.76 22.6275 225.106 22.2809C225.453 21.9275 225.64 21.4209 225.666 20.7609C225.246 21.1809 224.666 21.3909 223.926 21.3909C223.48 21.3909 223.073 21.3009 222.706 21.1209C222.34 20.9409 222.05 20.6875 221.836 20.3609C221.623 20.0275 221.516 19.6442 221.516 19.2109C221.516 18.7442 221.633 18.3342 221.866 17.9809C222.1 17.6275 222.416 17.3575 222.816 17.1709C223.223 16.9775 223.673 16.8809 224.166 16.8809ZM224.286 20.1809C224.64 20.1809 224.926 20.0842 225.146 19.8909C225.373 19.6909 225.486 19.4375 225.486 19.1309C225.486 18.8242 225.376 18.5742 225.156 18.3809C224.943 18.1875 224.646 18.0909 224.266 18.0909C223.92 18.0909 223.636 18.1842 223.416 18.3709C223.203 18.5575 223.096 18.8109 223.096 19.1309C223.096 19.4509 223.203 19.7075 223.416 19.9009C223.636 20.0875 223.926 20.1809 224.286 20.1809Z" fill="black"/>
<path d="M249.239 18.0009V25.0009H247.619V19.3009H246.219V18.0009H249.239Z" fill="black"/>
<path d="M253.455 25.1209C252.875 25.1209 252.358 24.9775 251.905 24.6909C251.451 24.4042 251.095 23.9909 250.835 23.4509C250.581 22.9042 250.455 22.2542 250.455 21.5009C250.455 20.7475 250.581 20.1009 250.835 19.5609C251.095 19.0142 251.451 18.5975 251.905 18.3109C252.358 18.0242 252.875 17.8809 253.455 17.8809C254.035 17.8809 254.551 18.0242 255.005 18.3109C255.458 18.5975 255.811 19.0142 256.065 19.5609C256.325 20.1009 256.455 20.7475 256.455 21.5009C256.455 22.2542 256.325 22.9042 256.065 23.4509C255.811 23.9909 255.458 24.4042 255.005 24.6909C254.551 24.9775 254.035 25.1209 253.455 25.1209ZM253.455 23.7509C253.881 23.7509 254.215 23.5675 254.455 23.2009C254.701 22.8342 254.825 22.2675 254.825 21.5009C254.825 20.7342 254.701 20.1675 254.455 19.8009C254.215 19.4342 253.881 19.2509 253.455 19.2509C253.035 19.2509 252.701 19.4342 252.455 19.8009C252.215 20.1675 252.095 20.7342 252.095 21.5009C252.095 22.2675 252.215 22.8342 252.455 23.2009C252.701 23.5675 253.035 23.7509 253.455 23.7509Z" fill="black"/>
<path d="M27.9652 9.20961V0L26.4671 0V9.20961H27.9652Z" fill="black"/>
<path d="M14.7318 14.1878V0L13.2338 0V14.1878H14.7318Z" fill="black"/>
<path d="M40.9487 14.1878V0L39.4507 0V14.1878H40.9487Z" fill="black"/>
<path d="M17.9778 7.71616V0L16.4796 0V7.71616H17.9778Z" fill="black"/>
<path d="M21.2234 7.71616V0L19.7253 0V7.71616H21.2234Z" fill="black"/>
<path d="M24.7192 7.71616V0L23.2212 0V7.71616H24.7192Z" fill="black"/>
<path d="M30.9614 7.71616V0L29.4633 0V7.71616H30.9614Z" fill="black"/>
<path d="M34.4569 7.71616V0L32.9588 0V7.71616H34.4569Z" fill="black"/>
<path d="M37.7029 7.71616V0L36.2047 0V7.71616H37.7029Z" fill="black"/>
<path d="M1.49841 9.20961L1.49841 0L0.000274658 0L0.000274658 9.20961H1.49841Z" fill="black"/>
<path d="M14.7318 14.1878V0L13.2338 0V14.1878H14.7318Z" fill="black"/>
<path d="M4.74438 7.71616V0L3.24628 0V7.71616H4.74438Z" fill="black"/>
<path d="M8.23987 7.71616V0L6.74173 0V7.71616H8.23987Z" fill="black"/>
<path d="M11.4858 7.71616V0L9.98776 0V7.71616H11.4858Z" fill="black"/>
<path d="M54.1821 9.20961V0L52.684 0V9.20961H54.1821Z" fill="black"/>
<path d="M67.4153 14.1878V0L65.9172 0V14.1878H67.4153Z" fill="black"/>
<path d="M44.4443 7.71616V0L42.9462 0V7.71616H44.4443Z" fill="black"/>
<path d="M47.6902 7.71616V0L46.1921 0V7.71616H47.6902Z" fill="black"/>
<path d="M50.9363 7.71616V0L49.4382 0V7.71616H50.9363Z" fill="black"/>
<path d="M57.4279 7.71616V0L55.9298 0V7.71616H57.4279Z" fill="black"/>
<path d="M60.6738 7.71616V0L59.1757 0V7.71616H60.6738Z" fill="black"/>
<path d="M64.1697 7.71616V0L62.6715 0V7.71616H64.1697Z" fill="black"/>
<path d="M80.6487 9.20961V0L79.1507 0V9.20961H80.6487Z" fill="black"/>
<path d="M93.6322 14.1878V0L92.1341 0V14.1878H93.6322Z" fill="black"/>
<path d="M70.6613 7.71616V0L69.1632 0V7.71616H70.6613Z" fill="black"/>
<path d="M74.1571 7.71616V0L72.6589 0V7.71616H74.1571Z" fill="black"/>
<path d="M77.4027 7.71616V0L75.9046 0V7.71616H77.4027Z" fill="black"/>
<path d="M83.8947 7.71616V0L82.3965 0V7.71616H83.8947Z" fill="black"/>
<path d="M87.1406 7.71616V0L85.6425 0V7.71616H87.1406Z" fill="black"/>
<path d="M90.3866 7.71616V0L88.8885 0V7.71616H90.3866Z" fill="black"/>
<path d="M107.115 9.20961V0L105.617 0V9.20961H107.115Z" fill="black"/>
<path d="M120.099 14.1878V0L118.601 0V14.1878H120.099Z" fill="black"/>
<path d="M97.1281 7.71616V0L95.6299 0V7.71616H97.1281Z" fill="black"/>
<path d="M100.374 7.71616V0L98.8759 0V7.71616H100.374Z" fill="black"/>
<path d="M103.87 7.71616V0L102.371 0V7.71616H103.87Z" fill="black"/>
<path d="M110.112 7.71616V0L108.614 0V7.71616H110.112Z" fill="black"/>
<path d="M113.607 7.71616V0L112.109 0V7.71616H113.607Z" fill="black"/>
<path d="M116.853 7.71616V0L115.355 0V7.71616H116.853Z" fill="black"/>
<path d="M133.333 9.20961V0L131.834 0V9.20961H133.333Z" fill="black"/>
<path d="M146.566 14.1878V0L145.068 0V14.1878H146.566Z" fill="black"/>
<path d="M123.594 7.71616V0L122.096 0V7.71616H123.594Z" fill="black"/>
<path d="M126.84 7.71616V0L125.342 0V7.71616H126.84Z" fill="black"/>
<path d="M130.086 7.71616V0L128.588 0V7.71616H130.086Z" fill="black"/>
<path d="M136.578 7.71616V0L135.08 0V7.71616H136.578Z" fill="black"/>
<path d="M139.824 7.71616V0L138.326 0V7.71616H139.824Z" fill="black"/>
<path d="M143.32 7.71616V0L141.822 0V7.71616H143.32Z" fill="black"/>
<path d="M159.799 9.20961V0L158.301 0V9.20961H159.799Z" fill="black"/>
<path d="M172.783 14.1878V0L171.285 0V14.1878H172.783Z" fill="black"/>
<path d="M149.812 7.71616V0L148.313 0V7.71616H149.812Z" fill="black"/>
<path d="M153.307 7.71616V0L151.809 0V7.71616H153.307Z" fill="black"/>
<path d="M156.553 7.71616V0L155.055 0V7.71616H156.553Z" fill="black"/>
<path d="M163.045 7.71616V0L161.547 0V7.71616H163.045Z" fill="black"/>
<path d="M166.291 7.71616V0L164.793 0V7.71616H166.291Z" fill="black"/>
<path d="M169.786 7.71616V0L168.288 0V7.71616H169.786Z" fill="black"/>
<path d="M186.266 9.20961V0L184.768 0V9.20961H186.266Z" fill="black"/>
<path d="M199.249 14.1878V0L197.751 0V14.1878H199.249Z" fill="black"/>
<path d="M176.278 7.71616V0L174.78 0V7.71616H176.278Z" fill="black"/>
<path d="M179.524 7.71616V0L178.026 0V7.71616H179.524Z" fill="black"/>
<path d="M183.02 7.71616V0L181.522 0V7.71616H183.02Z" fill="black"/>
<path d="M189.262 7.71616V0L187.764 0V7.71616H189.262Z" fill="black"/>
<path d="M192.758 7.71616V0L191.26 0V7.71616H192.758Z" fill="black"/>
<path d="M196.003 7.71616V0L194.505 0V7.71616H196.003Z" fill="black"/>
<path d="M212.483 9.20961V0L210.985 0V9.20961H212.483Z" fill="black"/>
<path d="M225.716 14.1878V0L224.218 0V14.1878H225.716Z" fill="black"/>
<path d="M202.745 7.71616V0L201.247 0V7.71616H202.745Z" fill="black"/>
<path d="M205.991 7.71616V0L204.493 0V7.71616H205.991Z" fill="black"/>
<path d="M209.487 7.71616V0L207.988 0V7.71616H209.487Z" fill="black"/>
<path d="M215.729 7.71616V0L214.231 0V7.71616H215.729Z" fill="black"/>
<path d="M219.224 7.71616V0L217.726 0V7.71616H219.224Z" fill="black"/>
<path d="M222.47 7.71616V0L220.972 0V7.71616H222.47Z" fill="black"/>
<path d="M238.949 9.20961V0L237.451 0V9.20961H238.949Z" fill="black"/>
<path d="M251.933 14.1878V0L250.435 0V14.1878H251.933Z" fill="black"/>
<path d="M228.962 7.71616V0L227.464 0V7.71616H228.962Z" fill="black"/>
<path d="M232.458 7.71616V0L230.959 0V7.71616H232.458Z" fill="black"/>
<path d="M235.703 7.71616V0L234.205 0V7.71616H235.703Z" fill="black"/>
<path d="M242.195 7.71616V0L240.697 0V7.71616H242.195Z" fill="black"/>
<path d="M245.441 7.71616V0L243.943 0V7.71616H245.441Z" fill="black"/>
<path d="M248.937 7.71616V0L247.439 0V7.71616H248.937Z" fill="black"/>
<path d="M265.416 9.20961V0L263.918 0V9.20961H265.416Z" fill="black"/>
<path d="M255.428 7.71616V0L253.93 0V7.71616H255.428Z" fill="black"/>
<path d="M258.924 7.71616V0L257.426 0V7.71616H258.924Z" fill="black"/>
<path d="M262.17 7.71616V0L260.672 0V7.71616H262.17Z" fill="black"/>
<path d="M268.662 7.71616V0L267.164 0V7.71616H268.662Z" fill="black"/>
<g clip-path="url(#clip1_584_2380)">
<path d="M220.318 45.9231C219.494 45.9231 218.918 45.3462 218.918 44.6154C218.918 43.8846 219.535 43.3077 220.318 43.3077C221.141 43.3077 221.718 43.8846 221.718 44.6154C221.718 45.3462 221.141 45.9231 220.318 45.9231ZM223.488 45.8462C223.2 45.8462 223.076 45.6923 223.076 45.4615V42.2308H221.759V42.8462C221.347 42.3846 220.771 42.1154 220.071 42.1154C218.629 42.1154 217.559 43.1923 217.559 44.6154C217.559 46.0385 218.629 47.1154 220.071 47.1154C220.812 47.1154 221.429 46.7692 221.841 46.2692C222.047 46.7692 222.5 47.0385 223.2 47.0385H223.571V45.8462H223.488Z" fill="#9C6A17"/>
<path d="M226.947 47.1154C228.306 47.1154 229.376 46.3077 229.624 45.1538H228.224C228.018 45.6154 227.524 45.9231 226.947 45.9231C226.124 45.9231 225.547 45.3462 225.547 44.6154C225.547 43.8846 226.165 43.3077 226.947 43.3077C227.524 43.3077 228.018 43.6154 228.224 44.0769H229.624C229.376 42.9231 228.306 42.1154 226.947 42.1154C225.382 42.1154 224.188 43.1923 224.188 44.6154C224.188 46.0385 225.382 47.1154 226.947 47.1154Z" fill="#9C6A17"/>
<path d="M233.453 43.3462V42.2308H232.259V40.9615H231.024V41.8462C231.024 42.1154 230.9 42.2308 230.612 42.2308H230.159V43.3462H230.982V45.5C230.982 46.5 231.6 47 232.753 47H233.453V45.8846H232.959C232.547 45.8846 232.3 45.6539 232.3 45.2692V43.3462H233.453Z" fill="#9C6A17"/>
<path d="M234.565 47H235.882V42.2308H234.565V47ZM235.224 41.5385C235.676 41.5385 236.047 41.1923 236.047 40.7692C236.047 40.3462 235.676 40 235.224 40C234.771 40 234.4 40.3462 234.4 40.7692C234.4 41.1923 234.729 41.5385 235.224 41.5385Z" fill="#9C6A17"/>
<path d="M240.247 43.3462V42.2308H239.053V40.9615H237.818V41.8462C237.818 42.1154 237.694 42.2308 237.406 42.2308H236.953V43.3462H237.776V45.5C237.776 46.5 238.394 47 239.547 47H240.247V45.8846H239.753C239.341 45.8846 239.094 45.6539 239.094 45.2692V43.3462H240.247Z" fill="#9C6A17"/>
<path d="M246.712 45.8466C246.424 45.8466 246.3 45.6928 246.3 45.462V44.0005C246.3 42.8851 245.518 42.1543 244.282 42.1543C243.624 42.1543 243.047 42.4236 242.635 42.8851V40.2697H241.318V47.0389H242.635V44.4236C242.635 43.7697 243.129 43.3466 243.829 43.3466C244.488 43.3466 244.941 43.7697 244.941 44.4236V45.7313C244.941 46.6159 245.435 47.0389 246.424 47.0389H246.794V45.8466H246.712Z" fill="#9C6A17"/>
<path d="M247.659 47H248.976V42.2308H247.659V47ZM248.318 41.5385C248.771 41.5385 249.141 41.1923 249.141 40.7692C249.141 40.3462 248.771 40 248.318 40C247.865 40 247.494 40.3462 247.494 40.7692C247.494 41.1923 247.865 41.5385 248.318 41.5385Z" fill="#9C6A17"/>
<path d="M255.729 45.8464C255.441 45.8464 255.318 45.6925 255.318 45.4618V44.0002C255.318 42.8849 254.535 42.1541 253.3 42.1541C252.641 42.1541 252.065 42.3849 251.653 42.8464V42.231H250.335V47.0002H251.653V44.3849C251.653 43.731 252.147 43.3079 252.847 43.3079C253.506 43.3079 253.959 43.731 253.959 44.3849V45.6925C253.959 46.5772 254.453 47.0002 255.441 47.0002H255.812V45.8079H255.729V45.8464Z" fill="#9C6A17"/>
<path fill-rule="evenodd" clip-rule="evenodd" d="M213.482 42.2693C213.482 42.2308 213.482 42.2308 213.482 42.1924C213.441 42.077 213.4 41.9231 213.318 41.7693C213.235 41.6154 213.029 41.3847 212.7 41.3462C212.371 41.3078 212.082 41.4616 211.876 41.6154C211.671 41.7693 211.506 42.0001 211.465 42.2693C211.424 42.577 211.547 42.7693 211.712 42.9231C211.835 43.0385 212 43.1154 212.082 43.1539C212.124 43.1924 212.165 43.1924 212.206 43.1924C212.206 43.1924 212.206 43.1924 212.247 43.1924L211.341 47.2308L212.453 47.4616L213.4 43.2693L215.582 43.3462C215.5 43.4616 215.459 43.577 215.376 43.6924C215.212 44.0001 215.047 44.3078 214.924 44.6154C214.8 44.8847 214.676 45.2693 214.718 45.577C214.759 45.9616 214.882 46.3847 215.253 46.7308C215.624 47.0385 216.118 47.2308 216.776 47.3462L217.312 47.4231L217.518 46.3847L216.982 46.3078C216.406 46.1924 216.159 46.077 216.035 45.9616C215.912 45.8847 215.871 45.7308 215.829 45.4616V45.4231C215.829 45.3847 215.829 45.3847 215.871 45.3462C215.912 45.2693 215.912 45.1539 215.994 45.0385C216.118 44.7693 216.241 44.5001 216.406 44.2308C216.612 43.6924 216.941 43.1924 216.941 43.1924C216.941 43.1539 217.024 43.077 217.024 42.9231C217.024 42.8462 216.982 42.7308 216.941 42.6154C216.859 42.5001 216.776 42.4616 216.694 42.4231C216.612 42.3847 216.529 42.3847 216.488 42.3847L213.482 42.2693Z" fill="#9C6A17"/>
<path d="M194.994 46.7306C194.83 46.4613 194.541 46.2306 194.294 46.0383C194.006 45.846 193.677 45.6152 193.347 45.4998C193.018 45.3844 192.647 45.4229 192.318 45.5383C192.03 45.6152 191.783 45.8075 191.659 46.0767C191.536 46.3844 191.536 46.6537 191.783 46.8844C192.03 47.0767 192.359 47.2306 192.647 47.269C192.73 47.269 192.977 47.3075 193.059 47.2306C193.141 47.1537 193.1 46.8844 193.1 46.8075C193.018 46.5383 192.73 46.3075 192.483 46.5383C192.236 46.769 191.865 46.346 192.112 46.1152C192.4 45.846 192.853 45.846 193.183 46.0383C193.512 46.2306 193.677 46.6152 193.677 46.9998C193.677 47.3844 193.553 47.7306 193.141 47.8075C192.771 47.9229 192.318 47.846 191.988 47.6921C191.659 47.5383 191.33 47.3075 191.124 46.9998C190.959 46.6537 191 46.2306 191.165 45.8844C191.494 45.1536 192.318 44.8844 193.1 44.9229C193.594 44.9613 194.047 45.2306 194.418 45.4613C194.788 45.7306 195.2 45.9998 195.447 46.3844C195.612 46.6921 195.159 47.0383 194.994 46.7306Z" fill="#9C6A17"/>
<path d="M202.035 43.6921C202.118 44.3075 201.83 44.8459 201.418 44.8844C201.006 44.9229 200.594 44.4229 200.512 43.8075C200.43 43.1921 200.718 42.6536 201.13 42.6152C201.541 42.5767 201.953 43.0767 202.035 43.6921Z" fill="#9C6A17"/>
<path d="M194.129 44.2697C194.129 46.1543 195.818 47.4236 197.835 47.4236C199.853 47.4236 201.459 46.4236 201.5 44.2697C201.541 42.3851 199.853 40.8466 197.835 40.8466C195.776 40.8466 194.129 42.3466 194.129 44.2697Z" fill="#9C6A17"/>
<path d="M198.824 41.038C198.824 40.8841 197.753 40.8457 197.465 40.2687C197.424 40.1918 197.424 40.1149 197.424 40.1149C197.3 40.1534 197.094 40.2303 196.888 40.4226C196.682 40.6149 196.641 40.8072 196.6 40.8841C196.559 40.8841 196.435 40.8072 196.353 40.7303C196.271 40.6149 196.271 40.4611 196.271 40.4226C196.188 40.4995 196.065 40.5764 195.982 40.7303C195.694 41.1534 195.818 41.5764 195.859 41.6918C198.288 41.3457 198.824 41.1534 198.824 41.038Z" fill="#9C6A17"/>
<path d="M196.147 45.8079C196.353 46.6925 197.588 47.1925 198.865 46.8848C200.182 46.6156 201.088 45.654 200.882 44.8079C200.676 43.9232 199.441 43.4232 198.124 43.7309C196.847 44.0002 195.982 44.9232 196.147 45.8079Z" fill="#FECC7B"/>
<path d="M195.735 44.1921C195.9 44.9614 196.641 45.4614 197.382 45.269C198.124 45.0767 198.618 44.3075 198.453 43.5383C198.288 42.769 197.547 42.269 196.806 42.4614C196.024 42.6152 195.571 43.3844 195.735 44.1921Z" fill="#FECC7B"/>
<path d="M200.347 43.0387C200.512 43.8464 200.059 44.6156 199.4 44.7695C198.7 44.9233 198 44.4233 197.876 43.6541C197.671 42.8464 198.124 42.0772 198.824 41.9233C199.482 41.731 200.182 42.231 200.347 43.0387Z" fill="#FECC7B"/>
<path d="M194.706 46.0382C194.459 46.0767 194.212 45.9613 194.006 45.7305C193.8 45.4998 193.594 45.1536 193.512 44.769C193.429 44.3844 193.471 43.9998 193.553 43.6921C193.677 43.3844 193.882 43.1921 194.129 43.1536C194.377 43.0767 194.624 43.1921 194.829 43.4228C195.035 43.6536 195.241 43.9998 195.324 44.3844C195.406 44.769 195.365 45.1536 195.282 45.4613C195.118 45.8075 194.953 45.9998 194.706 46.0382Z" fill="#9C6A17"/>
<path d="M195.118 45.4612C194.994 45.7305 194.829 45.8843 194.665 45.9228L194.706 46.1535C195.035 46.0766 195.241 45.8458 195.365 45.5382L195.118 45.4612ZM195.159 44.4612C195.241 44.8458 195.2 45.192 195.118 45.4612L195.406 45.5382C195.529 45.2305 195.571 44.8074 195.488 44.3843L195.159 44.4612ZM194.706 43.5382C194.912 43.7305 195.076 44.0766 195.159 44.4612L195.447 44.4228C195.365 43.9997 195.159 43.6151 194.953 43.3843L194.706 43.5382ZM194.129 43.2689C194.294 43.2305 194.541 43.3074 194.706 43.5382L194.912 43.3458C194.706 43.1151 194.418 42.9612 194.088 42.9997L194.129 43.2689ZM193.718 43.7305C193.8 43.4612 193.965 43.3074 194.129 43.2689L194.088 42.9997C193.759 43.0766 193.553 43.3074 193.429 43.6151L193.718 43.7305ZM193.635 44.7305C193.553 44.3458 193.594 43.9997 193.676 43.7305L193.429 43.6151C193.306 43.9228 193.265 44.3458 193.347 44.7689L193.635 44.7305ZM194.088 45.6535C193.882 45.4612 193.718 45.1151 193.635 44.7305L193.347 44.7689C193.429 45.192 193.635 45.5766 193.841 45.8074L194.088 45.6535ZM194.665 45.9228C194.5 45.9612 194.294 45.8843 194.088 45.6535L193.882 45.8074C194.129 46.0766 194.418 46.2305 194.747 46.1535L194.665 45.9228ZM195.241 45.4997L195.365 45.5382L195.241 45.4997ZM195.324 44.4228L195.2 44.4612L195.324 44.4228ZM194.829 43.4228L194.953 43.3458L194.829 43.4228ZM194.129 43.1535L194.088 42.9997L194.129 43.1535ZM193.553 43.692L193.429 43.6151L193.553 43.692ZM193.512 44.7689L193.635 44.7305L193.512 44.7689ZM193.965 45.7305L193.882 45.8074L193.965 45.7305ZM194.706 46.0382L194.665 45.9228L194.706 46.0382Z" fill="#FECC7B"/>
<path d="M194.171 44.7303C194.665 45.6919 194.747 46.4226 195.118 46.3457C195.488 46.2688 195.571 45.2303 195.447 44.3842C195.324 43.5765 194.582 42.9996 194.459 43.115C194.294 43.1534 194.047 43.9226 194.171 44.7303Z" fill="#9C6A17"/>
<path d="M199.729 45.8082C199.688 45.8466 199.194 46.3851 198.329 46.3851C197.712 46.3851 197.135 46.0774 196.806 45.6543C196.929 45.7313 197.465 46.1543 198.288 46.1928C199.07 46.1928 199.565 45.8851 199.729 45.8082Z" fill="#9C6A17"/>
<path d="M198.165 45.1918C198.206 45.1918 198.371 45.2303 198.577 45.2303C198.782 45.1918 198.906 45.1534 198.947 45.1149C198.824 45.1149 198.7 45.1534 198.577 45.1534C198.412 45.1918 198.247 45.1918 198.165 45.1918Z" fill="#9C6A17"/>
<path d="M201.459 44.3844C201.5 44.3844 201.541 44.3844 201.541 44.4228L201.706 47.4613C201.706 47.4998 201.706 47.4998 201.665 47.5382L198.782 48.8844H198.741L195.653 47.9228C195.612 47.9228 195.612 47.8844 195.612 47.8844L195.447 44.8459C195.447 44.8074 195.447 44.8074 195.488 44.8074H195.529L198.576 45.8074C198.618 45.8074 198.618 45.8074 198.659 45.8074L201.459 44.3844Z" fill="#9C6A17"/>
<path d="M198.741 45.8846L201.541 44.5385L201.377 44.2308L198.577 45.5769L198.741 45.8846ZM198.535 45.8846C198.618 45.9231 198.659 45.8846 198.741 45.8846L198.577 45.6154H198.618L198.535 45.8846ZM198.618 45.8846V45.5769V45.8846ZM195.488 44.8846L198.535 45.8846L198.659 45.5769L195.612 44.6154L195.488 44.8846ZM195.53 44.9231V44.6154V44.9231ZM195.612 44.8846L195.571 44.9231C195.53 44.9231 195.53 44.9231 195.488 44.9231L195.612 44.6154C195.53 44.5769 195.447 44.6154 195.406 44.6539L195.612 44.8846ZM195.612 44.8077C195.612 44.8462 195.612 44.8462 195.571 44.8846L195.365 44.6539C195.324 44.6923 195.282 44.7692 195.282 44.8462L195.612 44.8077ZM195.818 47.8462L195.653 44.8077H195.324L195.488 47.8462H195.818ZM195.735 47.7308C195.777 47.7308 195.818 47.8077 195.818 47.8077L195.488 47.8462C195.488 47.9231 195.53 48 195.653 48.0385L195.735 47.7308ZM195.694 47.7308V48.0385V47.7308ZM198.824 48.7308L195.735 47.7692L195.612 48.0769L198.7 49.0385L198.824 48.7308ZM198.741 48.6923V49V48.6923ZM198.7 48.7308C198.741 48.7308 198.782 48.7308 198.782 48.7308L198.659 49C198.7 49.0385 198.782 49 198.824 49L198.7 48.7308ZM198.659 48.7692L198.906 49L198.659 48.7692ZM201.624 47.3846L198.741 48.7308L198.906 49L201.788 47.6539L201.624 47.3846ZM201.541 47.4615C201.541 47.4231 201.541 47.3846 201.582 47.3846L201.706 47.6539C201.788 47.6154 201.83 47.5385 201.83 47.4615H201.541ZM201.377 44.4615L201.541 47.5H201.871L201.706 44.4231L201.377 44.4615ZM201.541 44.5385C201.5 44.5769 201.459 44.5385 201.418 44.5385C201.377 44.5385 201.377 44.5 201.377 44.4615H201.706C201.706 44.3077 201.541 44.1923 201.377 44.2692L201.541 44.5385ZM198.659 45.7308L198.577 45.5769L198.659 45.7308ZM198.618 45.7308L198.659 45.5769H198.618H198.577V45.7308H198.618ZM198.618 45.7308L198.577 45.8846H198.618H198.659V45.7308H198.618ZM195.53 44.7692L195.571 44.6154H195.53V44.7692ZM195.53 44.7692L195.488 44.9231H195.53V44.7692ZM195.488 44.7692L195.612 44.8846L195.488 44.7692ZM195.447 44.8077H195.612H195.447ZM195.653 47.8462H195.488H195.653ZM195.694 47.8846L195.653 48.0385H195.694H195.735V47.8846H195.694ZM195.694 47.8846L195.735 47.7308H195.694H195.653V47.8846H195.694ZM198.741 48.8462L198.7 49H198.741H198.782V48.8462H198.741ZM198.741 48.8462L198.782 48.6923H198.741H198.7V48.8462H198.741ZM198.782 48.8462L198.865 49H198.906L198.782 48.8462ZM198.782 48.8462L198.7 48.6923H198.659L198.782 48.8462ZM201.665 47.5385L201.582 47.3846L201.665 47.5385ZM201.706 47.4615H201.871H201.706ZM201.541 44.4231H201.706H201.541ZM201.459 44.3846L201.541 44.5385L201.459 44.3846Z" fill="#FECC7B"/>
<path d="M198.741 48.7692L198.577 46L198.824 45.9615L198.947 48.6539L198.741 48.7692Z" fill="#FECC7B"/>
<path d="M195.859 44.5774L195.818 44.7313V44.6928V44.5774V44.5005L198.041 45.3082L195.859 44.5774Z" fill="#9C6A17"/>
<path d="M195.777 44.5767L195.941 44.6151L195.777 44.5767ZM195.9 44.4998L195.818 44.6536L195.9 44.4998ZM198.082 45.2305L195.9 44.4998L195.859 44.6536L198 45.3844L198.082 45.2305ZM195.777 44.5382L198 45.3844L198.041 45.2305L195.818 44.3844L195.777 44.5382ZM195.9 44.5767V44.4613H195.735V44.5767H195.9ZM195.9 44.6921V44.5767L195.735 44.6151V44.7305L195.9 44.6921ZM195.9 44.6536L195.777 44.769L195.9 44.6536ZM195.777 44.5767V44.6921H195.941V44.5767H195.777ZM195.859 44.5767L195.9 44.4998L195.818 44.4613V44.5767H195.859ZM195.859 44.5767L195.818 44.6536L195.859 44.5767ZM198.041 45.3074L198 45.3844L198.041 45.2305V45.3074ZM195.818 44.4998L195.859 44.4228L195.735 44.3844V44.4998H195.818ZM195.818 44.5767H195.735H195.818ZM195.818 44.6921H195.735V44.7305L195.818 44.6921ZM195.818 44.7305L195.777 44.769L195.9 44.8844V44.7305H195.818ZM195.859 44.5767H195.777H195.859Z" fill="#FECC7B"/>
<path d="M201.5 44.461L201.418 44.1534L199.153 45.538L201.418 44.3457V44.3072V44.3457L201.5 44.461Z" fill="#9C6A17"/>
<path d="M201.582 44.4615H201.418H201.582ZM201.5 44.5385V44.3846V44.5385ZM201.335 44.3846L201.418 44.5L201.541 44.4231L201.459 44.3077L201.335 44.3846ZM201.335 44.3461L201.5 44.2692L201.335 44.3461ZM201.459 44.3846L201.376 44.2308L201.459 44.3846ZM199.194 45.5769L201.459 44.3846L201.376 44.2692L199.112 45.4615L199.194 45.5769ZM201.335 44.1154L199.071 45.4615L199.153 45.5769L201.418 44.2308L201.335 44.1154ZM201.582 44.4231L201.5 44.1538L201.335 44.1923L201.418 44.4615L201.582 44.4231ZM201.5 44.4615V44.5385H201.582V44.4615H201.5ZM201.5 44.4615L201.418 44.5L201.459 44.5385H201.5V44.4615ZM201.418 44.3461L201.335 44.3846L201.418 44.3461ZM201.418 44.3077L201.5 44.2692L201.459 44.2308L201.376 44.2692L201.418 44.3077ZM201.418 44.3461L201.376 44.2692L201.418 44.3461ZM199.153 45.5385L199.112 45.4615L199.194 45.5769L199.153 45.5385ZM201.418 44.1538L201.5 44.1154L201.459 44.0385L201.376 44.0769L201.418 44.1538ZM201.5 44.4615H201.582H201.5Z" fill="#FECC7B"/>
<path d="M195.826 47.6913C196.258 47.6838 196.604 47.4712 196.599 47.2164C196.594 46.9615 196.24 46.761 195.808 46.7684C195.376 46.7759 195.03 46.9885 195.035 47.2434C195.04 47.4982 195.394 47.6988 195.826 47.6913Z" fill="#9C6A17"/>
<path d="M195.822 47.4991C196.073 47.4949 196.273 47.3709 196.27 47.2223C196.267 47.0736 196.062 46.9565 195.812 46.9607C195.562 46.965 195.361 47.0889 195.364 47.2376C195.367 47.3862 195.572 47.5033 195.822 47.4991Z" fill="#FECC7B"/>
<path d="M196.6 46.7692C196.6 47.0769 196.229 47.3077 195.776 47.3077C195.324 47.3077 194.953 47.0769 194.912 46.8077C194.912 46.5385 195.282 46.2692 195.735 46.2692C196.188 46.2308 196.559 46.4615 196.6 46.7692Z" fill="#9C6A17"/>
<path d="M196.229 46.6539C196.229 46.8077 196.023 46.9615 195.776 46.9615C195.529 46.9615 195.323 46.8462 195.323 46.6539C195.323 46.5 195.529 46.3462 195.776 46.3462C196.023 46.3462 196.229 46.5 196.229 46.6539Z" fill="#FECC7B"/>
<path d="M196.476 46.231C196.476 46.4618 196.147 46.6541 195.694 46.6541C195.282 46.6541 194.912 46.4618 194.912 46.231V46.1925C194.953 45.9618 195.282 45.8079 195.694 45.8079C196.106 45.8464 196.476 46.0002 196.476 46.231Z" fill="#9C6A17"/>
<path d="M196.147 46.2305C196.147 46.3844 195.941 46.5382 195.694 46.5382C195.529 46.5382 195.282 46.4229 195.241 46.269V46.2305C195.241 46.0767 195.488 45.9229 195.694 45.9229C195.941 45.9229 196.147 46.0767 196.147 46.2305Z" fill="#FECC7B"/>
<path d="M195.447 45.5382C195.365 45.5767 195.118 45.6536 194.994 45.8844C194.912 46.0382 194.871 46.1921 194.871 46.269C195.035 46.1536 195.241 46.0382 195.406 45.8844C195.447 45.769 195.488 45.6536 195.447 45.5382Z" fill="#9C6A17"/>
<path d="M195.447 46.0772C195.365 46.1541 195.324 46.2695 195.241 46.3464C195.241 46.3079 195.159 46.1156 195.241 45.8849C195.282 45.6926 195.406 45.6156 195.447 45.6156C195.365 45.7695 195.324 45.9618 195.365 46.0387C195.406 46.0772 195.447 46.0772 195.447 46.0772Z" fill="#FECC7B"/>
<path d="M200.841 46.577C200.841 46.8462 201.212 47.0386 201.582 47.0001C201.994 46.9616 202.282 46.7309 202.282 46.5001C202.282 46.2309 201.912 46.0386 201.541 46.077C201.129 46.077 200.8 46.3078 200.841 46.577Z" fill="#9C6A17"/>
<path d="M201.573 46.2688C201.324 46.2847 201.13 46.4179 201.141 46.5662C201.152 46.7146 201.363 46.8219 201.613 46.806C201.862 46.7901 202.056 46.6569 202.045 46.5086C202.034 46.3602 201.823 46.2529 201.573 46.2688Z" fill="#FECC7B"/>
<path d="M200.718 46.1156C200.718 46.3848 201.129 46.6156 201.582 46.5772C202.035 46.5387 202.406 46.2695 202.365 46.0002C202.365 45.731 201.953 45.5002 201.5 45.5387C201.047 45.5772 200.677 45.8079 200.718 46.1156Z" fill="#9C6A17"/>
<path d="M201.469 45.6216C201.151 45.6414 200.903 45.795 200.915 45.9645C200.928 46.1341 201.195 46.2555 201.513 46.2356C201.83 46.2158 202.078 46.0623 202.066 45.8927C202.054 45.7232 201.786 45.6018 201.469 45.6216Z" fill="#FECC7B"/>
<path d="M200.841 45.5764C200.841 45.8072 201.212 45.9611 201.582 45.9611C201.994 45.9226 202.282 45.7303 202.282 45.4995V45.4611C202.241 45.2303 201.912 45.1149 201.541 45.1149C201.129 45.1534 200.8 45.3457 200.841 45.5764Z" fill="#9C6A17"/>
<path d="M201.171 45.5772C201.171 45.7311 201.377 45.8849 201.624 45.8465C201.788 45.8465 202.035 45.6926 202.035 45.5388V45.5003C202.035 45.3465 201.788 45.1926 201.582 45.2311C201.335 45.2311 201.171 45.3849 201.171 45.5772Z" fill="#FECC7B"/>
<path d="M201.624 44.8077C201.706 44.8461 201.953 44.9231 202.118 45.1538C202.241 45.3077 202.282 45.4615 202.282 45.5384C202.076 45.4231 201.871 45.3077 201.665 45.1923C201.665 45.1154 201.665 45.0769 201.624 45C201.624 44.9231 201.624 44.8461 201.624 44.8077Z" fill="#9C6A17"/>
<path d="M201.788 45.3082C201.87 45.3851 201.953 45.462 202.035 45.5389C202.035 45.5005 202.076 45.3082 201.994 45.1159C201.912 44.962 201.747 44.9236 201.747 44.8851C201.87 45.0389 201.912 45.1928 201.87 45.2313C201.829 45.2697 201.829 45.3082 201.788 45.3082Z" fill="#FECC7B"/>
<path d="M197.712 44.2692C197.753 44.5385 197.588 44.7692 197.341 44.8077C197.094 44.8462 196.888 44.6539 196.847 44.3846C196.765 44.1154 196.929 43.8846 197.177 43.8462C197.424 43.8462 197.671 44 197.712 44.2692Z" fill="#9C6A17"/>
<path d="M197.259 44.0769C197.259 44.2308 197.176 44.3462 197.053 44.3846C196.929 44.3846 196.806 44.3077 196.806 44.1539C196.806 44 196.888 43.8846 197.012 43.8462C197.135 43.8462 197.218 43.9615 197.259 44.0769Z" fill="#FECC7B"/>
<path d="M199.688 43.8467C199.729 44.1159 199.565 44.3467 199.359 44.3852C199.153 44.4236 198.947 44.2313 198.906 43.9621C198.906 43.6928 199.029 43.4621 199.276 43.4621C199.482 43.4236 199.688 43.6159 199.688 43.8467Z" fill="#9C6A17"/>
<path d="M199.359 43.5767C199.359 43.6536 199.276 43.7305 199.153 43.769C199.029 43.769 198.906 43.7305 198.906 43.6152C198.906 43.5382 198.988 43.4613 199.112 43.4229C199.235 43.4229 199.359 43.4998 199.359 43.5767Z" fill="#FECC7B"/>
<path d="M195.818 44.5767V44.7305L196.024 44.8075L195.941 44.6536L195.818 44.5767Z" fill="#FECC7B"/>
<path d="M195.818 44.5767L197.3 45.1536L198.576 45.6152L195.859 44.6536L195.818 44.5767Z" fill="#9C6A17"/>
<path d="M200.841 44.6536L199.153 45.5382L200.429 44.9613L201.5 44.4998L201.418 44.3844L200.841 44.6536Z" fill="#FECC7B"/>
<path d="M201.253 44.3844L199.853 45.0382L198.577 45.6151L201.212 44.4228L201.253 44.3844Z" fill="#9C6A17"/>
<path d="M207.923 42.1154C207.223 42.1154 206.647 42.3846 206.235 42.8462V42.2308H204.918V48.8077H206.235V46.3846C206.647 46.8462 207.223 47.1154 207.923 47.1154C209.365 47.1154 210.435 46.0385 210.435 44.6154C210.435 43.1923 209.365 42.1154 207.923 42.1154ZM207.676 45.9615C207.471 45.9615 207.306 45.9231 207.1 45.8462C206.647 45.6923 206.318 45.2692 206.235 44.8077C206.235 44.7308 206.235 44.6923 206.235 44.6154C206.235 44.5385 206.235 44.5 206.235 44.4231C206.318 43.9231 206.606 43.5385 207.1 43.3846C207.265 43.3077 207.471 43.2692 207.676 43.2692C208.459 43.2692 209.118 43.8846 209.118 44.6154C209.118 45.3462 208.5 45.9615 207.676 45.9615Z" fill="#9C6A17"/>
<path d="M258.776 44.9231C258.776 44.7692 258.818 44.5769 258.941 44.3462C259.024 44.1154 259.188 43.8846 259.312 43.6539C259.435 43.4231 259.6 43.2308 259.682 43.1154C259.724 43.0385 259.765 43 259.806 42.9616L259.847 42.9231L260.176 42.5L260.3 42.3846L259.065 42.1539L258.941 42.2308L258.9 42.2692C258.859 42.3077 258.818 42.3846 258.776 42.4616C258.653 42.6154 258.488 42.8462 258.365 43.0769C258.2 43.3077 258.035 43.6154 257.912 43.9231C257.871 44.0385 257.788 44.1923 257.788 44.3846V40.1923H256.594V46.9616H257.788V45.5385C258.076 46.5 259.147 47 260.3 47.1923L260.835 47.2692L261.041 46.2308L260.506 46.1539C259.312 45.9616 258.776 45.4616 258.776 44.9231Z" fill="#9C6A17"/>
</g>
</g>
<defs>
<clipPath id="clip0_584_2380">
<rect width="57" height="270" fill="white" transform="translate(270) rotate(90)"/>
</clipPath>
<clipPath id="clip1_584_2380">
<rect width="70" height="9" fill="white" transform="translate(191 40)"/>
</clipPath>
</defs>
</svg>
